<?xml version="1.0" standalone="no"?>
<!DOCTYPE svg PUBLIC "-//W3C//DTD SVG 20010904//EN"
 "http://www.w3.org/TR/2001/REC-SVG-20010904/DTD/svg10.dtd">
<svg version="1.0" xmlns="http://www.w3.org/2000/svg"
 width="68.000000pt" height="59.000000pt" viewBox="0 0 68.000000 59.000000"
 preserveAspectRatio="xMidYMid meet">

<g transform="translate(0.000000,59.000000) scale(0.100000,-0.100000)"
fill="#000000" stroke="none">
<path d="M262 513 c-42 -20 -69 -55 -82 -104 -15 -55 2 -108 50 -158 40 -41
49 -64 30 -76 -5 -3 -10 -19 -10 -35 0 -23 9 -35 37 -55 46 -31 52 -31 98 -2
l36 22 -6 61 c-6 57 -5 62 18 77 14 9 35 37 47 62 66 136 -81 276 -218 208z
m155 -25 c80 -55 82 -159 4 -232 -17 -17 -31 -40 -31 -53 0 -18 -6 -23 -25
-23 -23 0 -25 4 -25 45 0 39 3 46 30 60 22 11 30 23 30 41 0 23 -3 25 -26 20
-22 -6 -24 -5 -15 13 15 28 14 52 -6 73 -15 17 -17 17 -35 2 -19 -18 -24 -59
-8 -69 20 -12 9 -25 -15 -19 -20 5 -25 2 -25 -12 0 -25 10 -38 38 -53 18 -9
22 -20 22 -56 0 -41 -2 -45 -25 -45 -19 0 -25 5 -25 21 0 12 -18 41 -39 64
-66 72 -64 154 5 215 29 25 43 30 86 30 37 0 61 -6 85 -22z m-67 -92 c0 -7 -7
-13 -15 -13 -15 0 -20 18 -9 30 9 9 24 -2 24 -17z m-34 -93 c-7 -7 -26 7 -26
19 0 6 6 6 15 -2 9 -7 13 -15 11 -17z m59 8 c-3 -6 -11 -11 -17 -11 -6 0 -6 6
2 15 14 17 26 13 15 -4z m25 -161 c0 -6 -26 -10 -59 -10 -33 0 -63 5 -66 10
-4 6 18 10 59 10 37 0 66 -4 66 -10z m0 -30 c0 -6 -28 -10 -65 -10 -37 0 -65
4 -65 10 0 6 28 10 65 10 37 0 65 -4 65 -10z m-53 -36 c-3 -3 -12 -4 -19 -1
-8 3 -5 6 6 6 11 1 17 -2 13 -5z"/>
<path d="M370 480 c0 -5 5 -10 10 -10 6 0 19 -9 31 -21 20 -20 37 -20 24 0
-10 17 -65 43 -65 31z"/>
<path d="M230 312 c0 -5 7 -15 15 -22 8 -7 15 -8 15 -2 0 5 -7 15 -15 22 -8 7
-15 8 -15 2z"/>
</g>
</svg>
