<?xml version="1.0" standalone="no"?>
<!DOCTYPE svg PUBLIC "-//W3C//DTD SVG 20010904//EN"
 "http://www.w3.org/TR/2001/REC-SVG-20010904/DTD/svg10.dtd">
<svg version="1.0" xmlns="http://www.w3.org/2000/svg"
 width="106.000000pt" height="75.000000pt" viewBox="0 0 106.000000 75.000000"
 preserveAspectRatio="xMidYMid meet">

<g transform="translate(0.000000,75.000000) scale(0.100000,-0.100000)"
fill="#000000" stroke="none">
<path d="M236 724 c-9 -9 -16 -32 -16 -55 l0 -39 160 0 160 0 0 55 0 55 -144
0 c-118 0 -147 -3 -160 -16z m64 -44 c0 -5 -4 -10 -9 -10 -6 0 -13 5 -16 10
-3 6 1 10 9 10 9 0 16 -4 16 -10z m70 0 c0 -5 -4 -10 -10 -10 -5 0 -10 5 -10
10 0 6 5 10 10 10 6 0 10 -4 10 -10z"/>
<path d="M570 685 l0 -55 160 0 160 0 0 38 c0 66 -15 72 -178 72 l-142 0 0
-55z m138 -2 c5 -17 -26 -29 -40 -15 -6 6 -7 15 -3 22 9 14 37 9 43 -7z m70 0
c5 -17 -26 -29 -40 -15 -6 6 -7 15 -3 22 9 14 37 9 43 -7z m62 -3 c0 -13 -7
-20 -20 -20 -13 0 -20 7 -20 20 0 13 7 20 20 20 13 0 20 -7 20 -20z"/>
<path d="M810 680 c0 -5 5 -10 10 -10 6 0 10 5 10 10 0 6 -4 10 -10 10 -5 0
-10 -4 -10 -10z"/>
<path d="M220 353 c0 -188 3 -262 12 -271 8 -8 46 -12 105 -12 51 0 93 -4 93
-9 0 -25 -14 -41 -36 -41 -13 0 -24 -4 -24 -10 0 -6 35 -10 85 -10 l85 0 0 50
0 50 -140 0 -140 0 -2 252 c-3 232 -4 253 -20 256 -17 3 -18 -14 -18 -255z"/>
<path d="M570 590 c0 -11 4 -20 9 -20 5 0 11 -8 14 -19 7 -26 66 -54 84 -40
19 17 68 -28 52 -47 -16 -19 10 -84 33 -84 14 0 18 -8 18 -35 0 -28 -4 -35
-19 -35 -25 0 -49 -64 -32 -84 16 -19 -33 -64 -52 -48 -18 15 -75 -6 -83 -30
-3 -10 -10 -18 -15 -18 -5 0 -9 -29 -9 -65 l0 -65 80 0 c44 0 80 4 80 9 0 5
-10 11 -22 13 -15 2 -24 11 -26 26 -3 21 -1 22 92 22 84 0 97 2 106 19 6 12
10 117 10 270 l0 251 -160 0 c-153 0 -160 -1 -160 -20z"/>
<path d="M500 535 c0 -32 -32 -50 -61 -34 -18 9 -25 7 -43 -10 -18 -18 -19
-24 -8 -42 17 -27 7 -57 -21 -61 -18 -2 -22 -10 -22 -38 0 -27 5 -36 20 -38
33 -6 40 -19 25 -46 -23 -43 12 -82 52 -57 26 16 58 -2 58 -34 0 -18 5 -25 20
-25 17 0 20 7 20 50 0 44 -3 52 -24 60 -31 12 -66 57 -66 87 0 38 26 79 60 93
28 12 30 16 30 66 0 47 -2 54 -20 54 -15 0 -20 -7 -20 -25z"/>
<path d="M570 350 c0 -49 4 -90 9 -90 36 0 71 46 71 94 0 28 -44 86 -66 86
-11 0 -14 -19 -14 -90z"/>
</g>
</svg>
